<svg width="32" height="31" viewBox="0 0 32 31" fill="none" xmlns="http://www.w3.org/2000/svg">
<path d="M31.7978 4.03875C31.6226 3.81981 31.3574 3.69238 31.077 3.69238H6.50956L5.82256 0.7155C5.72587 0.296688 5.35294 0 4.92312 0H0.923124C0.413374 0 6.10352e-05 0.413312 6.10352e-05 0.923125C6.10352e-05 1.43294 0.413374 1.84619 0.923124 1.84619H4.18881L8.85206 22.0537C8.94869 22.4726 9.32169 22.7692 9.7515 22.7692H28.2462C28.756 22.7692 29.1692 22.3559 29.1692 21.8462C29.1692 21.3364 28.7559 20.9231 28.2462 20.9231H10.4859L9.77587 17.8462H28.3078C28.7396 17.8462 29.1136 17.5469 29.2084 17.1257L31.9776 4.81806C32.0391 4.54444 31.973 4.25775 31.7978 4.03875ZM27.5693 16H9.34981L6.93562 5.5385H29.9231L27.5693 16Z" fill="white"/>
<path d="M13.5385 24C11.6722 24 10.1539 25.5183 10.1539 27.3846C10.1539 29.2509 11.6722 30.7692 13.5385 30.7692C15.4047 30.7692 16.9231 29.2509 16.9231 27.3846C16.9231 25.5183 15.4048 24 13.5385 24ZM13.5385 28.9231C12.6902 28.9231 12.0001 28.2329 12.0001 27.3846C12.0001 26.5363 12.6902 25.8462 13.5385 25.8462C14.3868 25.8462 15.0769 26.5363 15.0769 27.3846C15.0769 28.2329 14.3868 28.9231 13.5385 28.9231Z" fill="white"/>
<path d="M24.6154 24C22.7492 24 21.2308 25.5183 21.2308 27.3846C21.2308 29.2509 22.7491 30.7692 24.6154 30.7692C26.4817 30.7692 28 29.2509 28 27.3846C28 25.5183 26.4817 24 24.6154 24ZM24.6154 28.9231C23.7671 28.9231 23.077 28.233 23.077 27.3847C23.077 26.5364 23.7671 25.8462 24.6154 25.8462C25.4637 25.8462 26.1538 26.5364 26.1538 27.3847C26.1538 28.233 25.4637 28.9231 24.6154 28.9231Z" fill="white"/>
</svg>
