<svg width="32" height="29" viewBox="0 0 32 29" fill="none" xmlns="http://www.w3.org/2000/svg">
<path d="M29.6653 2.77712C28.087 0.98625 25.8974 0 23.5001 0C20.1283 0 17.9936 2.01375 16.7966 3.70312C16.4861 4.1415 16.2219 4.58106 16.0001 4.99469C15.7782 4.58106 15.5141 4.1415 15.2035 3.70312C14.0065 2.01375 11.8718 0 8.50006 0C6.10269 0 3.91312 0.986313 2.33475 2.77719C0.829249 4.48556 6.10352e-05 6.77356 6.10352e-05 9.21969C6.10352e-05 11.8824 1.03962 14.3589 3.27162 17.0134C5.26644 19.3859 8.13625 21.8314 11.4594 24.6632C12.6977 25.7185 13.9783 26.8098 15.3416 28.0026L15.3826 28.0384C15.5593 28.1932 15.7797 28.2705 16.0001 28.2705C16.2204 28.2705 16.4408 28.1931 16.6176 28.0384L16.6585 28.0026C18.0218 26.8098 19.3024 25.7186 20.5409 24.6631C23.8639 21.8315 26.7337 19.386 28.7285 17.0134C30.9605 14.3589 32.0001 11.8824 32.0001 9.21969C32.0001 6.77356 31.1709 4.48556 29.6653 2.77712ZM19.3246 23.2361C18.2571 24.1458 17.1585 25.0819 16.0001 26.089C14.8417 25.0821 13.743 24.1458 12.6753 23.236C6.17162 17.6939 1.87506 14.0326 1.87506 9.21969C1.87506 7.23031 2.53787 5.38256 3.74144 4.01688C4.95881 2.63569 6.64875 1.875 8.50006 1.875C11.0706 1.875 12.7323 3.45863 13.6736 4.78713C14.5179 5.97863 14.9584 7.17975 15.1087 7.64081C15.2344 8.02675 15.5942 8.28794 16.0001 8.28794C16.4059 8.28794 16.7657 8.02675 16.8914 7.64081C17.0417 7.17975 17.4822 5.97863 18.3266 4.78706C19.2678 3.45863 20.9295 1.875 23.5001 1.875C25.3514 1.875 27.0413 2.63569 28.2586 4.01688C29.4622 5.38256 30.1251 7.23031 30.1251 9.21969C30.1251 14.0326 25.8285 17.6939 19.3246 23.2361Z" fill="white"/>
</svg>
