<svg width="21" height="20" viewBox="0 0 21 20" fill="none" xmlns="http://www.w3.org/2000/svg">
<path d="M9.17077 16.4718C4.62601 16.4718 0.928589 12.7772 0.928589 8.23588C0.928589 3.69459 4.62601 0 9.17077 0C13.7155 0 17.4129 3.69459 17.4129 8.23588C17.4129 12.7772 13.7155 16.4718 9.17077 16.4718ZM9.17077 1.5613C5.48757 1.5613 2.49109 4.5555 2.49109 8.23588C2.49109 11.9163 5.48757 14.9105 9.17077 14.9105C12.854 14.9105 15.8504 11.9163 15.8504 8.23588C15.8504 4.5555 12.854 1.5613 9.17077 1.5613ZM20.6998 19.7713C21.0049 19.4665 21.0049 18.9722 20.6998 18.6673L17.2037 15.1739C16.8986 14.869 16.4039 14.869 16.0988 15.1739C15.7937 15.4788 15.7937 15.9731 16.0988 16.2779L19.5949 19.7713C19.7474 19.9238 19.9474 20 20.1474 20C20.3473 20 20.5472 19.9238 20.6998 19.7713Z" fill="#31352B"/>
</svg>
