<svg width="25" height="32" viewBox="0 0 25 32" fill="none" xmlns="http://www.w3.org/2000/svg">
<path d="M22.6786 19.9427C21.6076 18.3799 20.2131 17.0955 18.5934 16.1643C20.4901 14.467 21.6861 12.0018 21.6861 9.26225C21.6862 4.15505 17.5311 0 12.4238 0C7.31662 0 3.16156 4.15505 3.16156 9.26225C3.16156 12.0018 4.35749 14.4669 6.25422 16.1643C4.63453 17.0956 3.24001 18.3799 2.16908 19.9427C0.750122 22.0134 6.10352e-05 24.4315 6.10352e-05 26.9359V32H24.8477V26.9359C24.8478 24.4315 24.0976 22.0133 22.6786 19.9427ZM5.10105 9.26225C5.10105 5.22444 8.3861 1.93939 12.4239 1.93939C16.4617 1.93939 19.7468 5.22444 19.7468 9.26225C19.7468 13.3002 16.4617 16.5852 12.4239 16.5852C8.3861 16.5852 5.10105 13.3002 5.10105 9.26225ZM1.93945 30.0606V26.9359C1.93945 22.8273 4.31928 19.1418 8.0404 17.4197C9.3461 18.1242 10.839 18.5245 12.4238 18.5245C14.0086 18.5245 15.5015 18.1241 16.8072 17.4197C20.5284 19.1417 22.9082 22.8273 22.9082 26.9359V30.0606H1.93945Z" fill="white"/>
</svg>
